<?xml version="1.0" standalone="no"?>
<!DOCTYPE svg PUBLIC "-//W3C//DTD SVG 20010904//EN"
 "http://www.w3.org/TR/2001/REC-SVG-20010904/DTD/svg10.dtd">
<svg version="1.0" xmlns="http://www.w3.org/2000/svg"
 width="1068.000000pt" height="233.000000pt" viewBox="0 0 1068.000000 233.000000"
 preserveAspectRatio="xMidYMid meet">

<g transform="translate(0.000000,233.000000) scale(0.100000,-0.100000)"
fill="#000000" stroke="none">
<path d="M3796 1754 c-25 -25 -20 -54 8 -54 25 0 56 32 56 57 0 18 -45 16 -64
-3z"/>
<path d="M5605 848 c-3 -8 -4 -77 -3 -153 3 -132 4 -140 23 -140 19 0 20 7 20
150 0 135 -2 150 -18 153 -9 2 -19 -3 -22 -10z"/>
<path d="M5915 828 c-3 -13 -4 -79 -3 -148 l3 -125 61 -3 c54 -2 66 1 92 22
16 14 32 39 36 56 6 35 -12 87 -38 109 -19 16 -71 19 -98 7 -16 -7 -18 -2 -18
48 0 43 -3 56 -15 56 -8 0 -17 -10 -20 -22z m127 -125 c9 -10 18 -27 22 -39 9
-30 -28 -74 -62 -74 -44 0 -54 13 -50 61 2 35 8 46 28 56 33 17 44 16 62 -4z"/>
<path d="M5712 748 c-7 -7 -12 -42 -12 -84 0 -97 13 -112 100 -116 l65 -3 3
103 c3 97 2 102 -18 102 -21 0 -23 -10 -24 -110 -1 -45 -1 -45 -38 -48 -33 -3
-38 0 -44 23 -3 14 -4 48 -2 76 5 52 -9 78 -30 57z"/>
<path d="M5423 728 c-74 -82 -50 -178 44 -180 46 0 83 16 83 37 0 18 -18 19
-56 5 -20 -8 -32 -7 -50 5 -27 18 -30 44 -9 84 18 36 38 44 70 29 20 -9 28 -9
38 1 9 10 8 15 -7 27 -31 22 -89 18 -113 -8z"/>
</g>
</svg>
