<?xml version="1.0" standalone="no"?>
<!DOCTYPE svg PUBLIC "-//W3C//DTD SVG 20010904//EN"
 "http://www.w3.org/TR/2001/REC-SVG-20010904/DTD/svg10.dtd">
<svg version="1.0" xmlns="http://www.w3.org/2000/svg"
 width="500.000000pt" height="500.000000pt" viewBox="0 0 500.000000 500.000000"
 preserveAspectRatio="xMidYMid meet">

<g transform="translate(0.000000,500.000000) scale(0.100000,-0.100000)"
fill="#000000" stroke="none">
<path d="M2822 3396 c7 -8 15 -12 17 -11 5 6 -10 25 -20 25 -5 0 -4 -6 3 -14z"/>
<path d="M2864 3389 c15 -9 16 -13 5 -21 -11 -7 -9 -8 5 -6 11 2 21 9 24 17 3
8 0 11 -6 7 -6 -3 -13 -2 -17 4 -3 5 -12 10 -18 10 -7 0 -4 -5 7 -11z"/>
<path d="M2911 3372 c-1 -7 7 -15 17 -19 9 -3 24 -12 34 -20 10 -9 18 -11 22
-4 7 11 -24 31 -48 31 -8 0 -17 6 -19 13 -4 9 -6 9 -6 -1z"/>
<path d="M3000 3312 c0 -12 7 -25 15 -29 27 -10 30 6 7 30 l-22 21 0 -22z"/>
<path d="M3050 3281 c0 -5 -8 -12 -17 -15 -14 -4 -14 -4 2 -3 11 1 26 -2 33
-7 22 -13 23 -1 2 17 -11 9 -20 13 -20 8z"/>
<path d="M2928 3263 c6 -2 18 -2 25 0 6 3 1 5 -13 5 -14 0 -19 -2 -12 -5z"/>
<path d="M3155 3131 c-6 -11 13 -26 22 -17 4 3 1 6 -6 6 -7 0 -9 5 -6 10 3 6
4 10 1 10 -3 0 -7 -4 -11 -9z"/>
</g>
</svg>
